<svg width="176" height="137" viewBox="0 0 176 137" fill="none" xmlns="http://www.w3.org/2000/svg">
<path d="M5.24004 133.099L2.47608 125.311H0.287109L4.41287 136.4H6.01677L10.193 125.311H8.03425L5.24004 133.099Z" fill="white"/>
<path d="M21.3101 126.785C20.8158 126.261 20.2408 125.855 19.5851 125.567C18.9294 125.278 18.2132 125.129 17.4365 125.129C16.6597 125.129 15.9637 125.278 15.308 125.567C14.6523 125.855 14.0774 126.261 13.5831 126.785C13.0888 127.308 12.7055 127.907 12.4331 128.601C12.1608 129.285 12.0195 130.033 12.0195 130.834C12.0195 131.635 12.1608 132.383 12.4331 133.077C12.7156 133.772 13.0989 134.391 13.5831 134.904C14.0774 135.428 14.6523 135.834 15.308 136.122C15.9637 136.421 16.6799 136.56 17.4466 136.56C18.2132 136.56 18.9193 136.411 19.5649 136.122C20.2105 135.823 20.7855 135.417 21.2798 134.904C21.7741 134.381 22.1574 133.772 22.4298 133.077C22.7122 132.383 22.8433 131.635 22.8433 130.834C22.8433 130.033 22.7021 129.285 22.4298 128.59C22.1473 127.896 21.764 127.287 21.2798 126.763L21.3101 126.785ZM20.3719 132.789C20.0895 133.344 19.6961 133.782 19.2018 134.103C18.7075 134.423 18.1224 134.573 17.4466 134.573C16.9624 134.573 16.5084 134.488 16.0949 134.306C15.6813 134.124 15.3282 133.879 15.0357 133.547C14.7431 133.227 14.5111 132.832 14.3497 132.362C14.1883 131.902 14.1076 131.389 14.1076 130.834C14.1076 130.097 14.2489 129.456 14.5313 128.889C14.8137 128.334 15.2072 127.896 15.7115 127.586C16.2159 127.276 16.7909 127.116 17.4466 127.116C17.9509 127.116 18.4049 127.201 18.8185 127.383C19.222 127.565 19.575 127.821 19.8776 128.152C20.1803 128.483 20.4022 128.879 20.5636 129.327C20.725 129.776 20.8057 130.278 20.8057 130.823C20.8057 131.571 20.6645 132.223 20.382 132.778L20.3719 132.789Z" fill="white"/>
<path d="M28.0061 125.311H25.9785V136.4H28.0061V125.311Z" fill="white"/>
<path d="M40.6159 125.311H38.326L35.9151 129.157L33.4437 125.311H31.0429L34.6239 130.706L30.8613 136.4H33.1613L35.8546 132.169L38.4269 136.4H40.7974L37.1559 130.642L40.6159 125.311Z" fill="white"/>
<path d="M50.8058 128.932C50.6848 128.729 50.6242 128.473 50.6242 128.184C50.6242 127.864 50.7352 127.608 50.9672 127.394C51.1992 127.18 51.4817 127.073 51.8145 127.073C52.1273 127.073 52.4097 127.159 52.6518 127.33C52.8939 127.501 53.1158 127.746 53.3176 128.046L54.6592 126.721C54.4877 126.443 54.2658 126.187 53.9934 125.952C53.7211 125.706 53.3983 125.514 53.0351 125.364C52.672 125.214 52.2483 125.14 51.7843 125.14C51.1891 125.14 50.6646 125.279 50.2006 125.546C49.7365 125.823 49.3734 126.187 49.1111 126.646C48.8488 127.105 48.7177 127.618 48.7177 128.174C48.7177 128.644 48.8085 129.082 48.9901 129.477C49.0909 129.712 49.2423 129.947 49.4137 130.193C48.8791 130.503 48.4554 130.887 48.1629 131.347C47.8199 131.881 47.6484 132.49 47.6484 133.163C47.6484 133.836 47.7997 134.391 48.0923 134.904C48.3848 135.417 48.7984 135.812 49.333 136.112C49.8677 136.411 50.483 136.55 51.1992 136.55C51.6431 136.55 52.0667 136.485 52.4702 136.357C52.8636 136.229 53.2268 136.058 53.5395 135.844C53.6908 135.748 53.832 135.641 53.9531 135.524L54.6995 136.389H57.0096L51.3001 129.627C51.0882 129.36 50.9269 129.135 50.8058 128.922V128.932ZM52.3088 134.359C52.0163 134.552 51.6632 134.648 51.2396 134.648C50.9067 134.648 50.6041 134.584 50.3418 134.456C50.0795 134.327 49.8878 134.135 49.7466 133.9C49.6054 133.665 49.5348 133.387 49.5348 133.067C49.5348 132.661 49.6256 132.308 49.7971 132.03C49.9484 131.795 50.1602 131.592 50.4326 131.443L52.6821 134.06C52.5711 134.178 52.4501 134.274 52.3088 134.37V134.359Z" fill="white"/>
<path d="M67.6814 133.099L64.9175 125.311H62.7285L66.8543 136.4H68.4582L72.6243 125.311H70.4656L67.6814 133.099Z" fill="white"/>
<path d="M77.5159 125.311H75.4883V136.4H77.5159V125.311Z" fill="white"/>
<path d="M86.8472 130.812C86.5546 130.556 86.2318 130.353 85.8788 130.193C85.5257 130.033 85.1726 129.894 84.8196 129.766C84.4665 129.637 84.1437 129.509 83.8512 129.37C83.5587 129.231 83.3266 129.071 83.1451 128.879C82.9635 128.686 82.8727 128.441 82.8727 128.142C82.8727 127.789 83.0038 127.511 83.2762 127.319C83.5486 127.127 83.9117 127.031 84.3757 127.031C84.7792 127.031 85.1525 127.116 85.4753 127.287C85.7981 127.458 86.1108 127.714 86.4235 128.078L87.7651 126.657C87.402 126.208 86.9279 125.834 86.3529 125.556C85.7779 125.268 85.1323 125.129 84.4161 125.129C83.7402 125.129 83.135 125.257 82.6003 125.503C82.0657 125.759 81.642 126.122 81.3293 126.593C81.0166 127.063 80.8653 127.64 80.8653 128.313C80.8653 128.879 80.9561 129.349 81.1377 129.723C81.3192 130.097 81.5513 130.396 81.8438 130.642C82.1363 130.877 82.4591 131.08 82.8122 131.229C83.1652 131.389 83.5183 131.528 83.8714 131.646C84.2244 131.763 84.5472 131.902 84.8398 132.052C85.1323 132.201 85.3643 132.383 85.5459 132.586C85.7274 132.789 85.8182 133.067 85.8182 133.409C85.8182 133.793 85.6669 134.103 85.3542 134.327C85.0415 134.552 84.6178 134.659 84.0933 134.659C83.5082 134.659 83.0139 134.541 82.6003 134.306C82.1969 134.071 81.8337 133.74 81.5311 133.302L80.1895 134.723C80.6736 135.332 81.2184 135.791 81.8236 136.09C82.4289 136.4 83.1451 136.549 83.9924 136.549C85.1827 136.549 86.1209 136.25 86.8068 135.663C87.4927 135.075 87.8357 134.263 87.8357 133.238C87.8357 132.661 87.7449 132.169 87.5634 131.774C87.3818 131.379 87.1498 131.058 86.8572 130.802L86.8472 130.812Z" fill="white"/>
<path d="M92.9299 125.311H90.9023V136.4H92.9299V125.311Z" fill="white"/>
<path d="M105.296 126.785C104.802 126.261 104.227 125.855 103.571 125.567C102.916 125.278 102.2 125.129 101.423 125.129C100.646 125.129 99.95 125.278 99.2944 125.567C98.6387 125.855 98.0637 126.261 97.5694 126.785C97.0751 127.308 96.6918 127.907 96.4194 128.601C96.1471 129.285 96.0059 130.033 96.0059 130.834C96.0059 131.635 96.1471 132.383 96.4194 133.077C96.6918 133.772 97.0852 134.391 97.5694 134.904C98.0637 135.428 98.6387 135.834 99.2944 136.122C99.95 136.421 100.666 136.56 101.433 136.56C102.2 136.56 102.906 136.411 103.551 136.122C104.197 135.823 104.772 135.417 105.266 134.904C105.76 134.381 106.144 133.772 106.416 133.077C106.699 132.383 106.83 131.635 106.83 130.834C106.83 130.033 106.688 129.285 106.416 128.59C106.134 127.896 105.75 127.287 105.266 126.763L105.296 126.785ZM104.358 132.789C104.076 133.344 103.682 133.782 103.188 134.103C102.694 134.423 102.109 134.573 101.433 134.573C100.949 134.573 100.495 134.488 100.081 134.306C99.6676 134.124 99.3145 133.879 99.022 133.547C98.7295 133.227 98.4975 132.832 98.3361 132.362C98.1747 131.902 98.094 131.389 98.094 130.834C98.094 130.097 98.2352 129.456 98.5176 128.889C98.8001 128.334 99.1935 127.896 99.6979 127.586C100.202 127.276 100.777 127.116 101.433 127.116C101.937 127.116 102.391 127.201 102.805 127.383C103.208 127.565 103.561 127.821 103.864 128.152C104.167 128.483 104.389 128.879 104.55 129.327C104.711 129.776 104.792 130.278 104.792 130.823C104.792 131.571 104.651 132.223 104.368 132.778L104.358 132.789Z" fill="white"/>
<path d="M116.626 132.5L111.381 125.311H109.969V136.4H111.996V129.253L117.212 136.4H118.664V125.311H116.626V132.5Z" fill="white"/>
<path d="M135.892 132.671L133.753 125.311H132.25L130.112 132.693L127.933 125.311H125.936L129.325 136.4H130.848L132.997 129.007L135.155 136.4H136.658L140.068 125.311H138.071L135.892 132.671Z" fill="white"/>
<path d="M151.267 126.785C150.773 126.261 150.198 125.855 149.542 125.567C148.886 125.278 148.17 125.129 147.394 125.129C146.617 125.129 145.921 125.278 145.265 125.567C144.609 125.855 144.034 126.261 143.54 126.785C143.046 127.308 142.662 127.907 142.39 128.601C142.118 129.285 141.977 130.033 141.977 130.834C141.977 131.635 142.118 132.383 142.39 133.077C142.662 133.772 143.056 134.391 143.54 134.904C144.034 135.428 144.609 135.834 145.265 136.122C145.921 136.421 146.637 136.56 147.404 136.56C148.17 136.56 148.876 136.411 149.522 136.122C150.168 135.823 150.743 135.417 151.237 134.904C151.731 134.381 152.114 133.772 152.387 133.077C152.669 132.383 152.8 131.635 152.8 130.834C152.8 130.033 152.659 129.285 152.387 128.59C152.104 127.896 151.721 127.287 151.237 126.763L151.267 126.785ZM150.329 132.789C150.047 133.344 149.653 133.782 149.159 134.103C148.665 134.423 148.079 134.573 147.404 134.573C146.919 134.573 146.465 134.488 146.052 134.306C145.638 134.124 145.285 133.879 144.993 133.547C144.7 133.227 144.468 132.832 144.307 132.362C144.145 131.902 144.065 131.389 144.065 130.834C144.065 130.097 144.206 129.456 144.488 128.889C144.771 128.334 145.164 127.896 145.669 127.586C146.173 127.276 146.748 127.116 147.404 127.116C147.908 127.116 148.362 127.201 148.775 127.383C149.179 127.565 149.532 127.821 149.835 128.152C150.137 128.483 150.359 128.879 150.521 129.327C150.682 129.776 150.763 130.278 150.763 130.823C150.763 131.571 150.621 132.223 150.339 132.778L150.329 132.789Z" fill="white"/>
<path d="M161.796 131.357C162.311 131.09 162.714 130.716 162.997 130.236C163.279 129.755 163.42 129.189 163.42 128.537C163.42 127.885 163.279 127.351 162.997 126.86C162.714 126.379 162.321 125.994 161.806 125.716C161.292 125.439 160.697 125.3 160.031 125.3H155.936V136.389H157.963V131.753H158.316L161.655 136.389H164.116L160.616 131.71C161.05 131.656 161.453 131.539 161.817 131.347L161.796 131.357ZM157.953 127.063H159.849C160.344 127.063 160.727 127.212 160.999 127.501C161.272 127.789 161.413 128.152 161.413 128.58C161.413 129.05 161.272 129.424 160.999 129.691C160.727 129.958 160.344 130.097 159.849 130.097H157.953V127.073V127.063Z" fill="white"/>
<path d="M175.615 136.4L171.984 130.642L175.444 125.311H173.144L170.743 129.157L168.262 125.311H165.861L169.442 130.706L165.689 136.4H167.979L170.673 132.169L173.255 136.4H175.615Z" fill="white"/>
<path d="M141.391 30.708C122.487 30.708 107.154 46.9468 107.154 66.9676C107.154 86.9883 122.487 103.227 141.391 103.227C149.421 103.227 156.805 100.3 162.635 95.4069V103.227H175.628V66.615C175.446 46.7652 160.184 30.7187 141.391 30.7187V30.708ZM141.391 89.4669C129.659 89.4669 120.147 79.3924 120.147 66.9676C120.147 54.5428 129.659 44.4683 141.391 44.4683C153.123 44.4683 162.635 54.5428 162.635 66.9676C162.635 79.3924 153.123 89.4669 141.391 89.4669Z" fill="white"/>
<path d="M167.949 0.613281C164.963 13.2091 154.199 22.525 141.388 22.525C128.577 22.525 117.804 13.2091 114.828 0.613281H125.773C128.365 7.02334 134.378 11.5211 141.388 11.5211C148.399 11.5211 154.411 7.02334 157.004 0.613281H167.949Z" fill="white"/>
<path d="M99.961 0.613281L65.0887 92.5122C62.6375 98.9864 56.7061 103.228 50.119 103.228C43.5319 103.228 37.6106 98.9864 35.1493 92.5122L0.287109 0.613281H17.4559L48.737 83.0253C49.2414 84.3607 51.0269 84.3607 51.5312 83.0253L82.7922 0.613281H99.9711H99.961Z" fill="white"/>
</svg>
