<svg width="94" height="52" viewBox="0 0 94 52" fill="none" xmlns="http://www.w3.org/2000/svg">
<path d="M75.5327 15.0625C65.5458 15.0625 57.4453 23.163 57.4453 33.15C57.4453 43.137 65.5458 51.2375 75.5327 51.2375C79.7748 51.2375 83.6758 49.7773 86.7561 47.3365V51.2375H93.6202V32.9741C93.5242 23.0724 85.4611 15.0678 75.5327 15.0678V15.0625ZM75.5327 44.3734C69.3348 44.3734 64.3094 39.3479 64.3094 33.15C64.3094 26.9521 69.3348 21.9266 75.5327 21.9266C81.7306 21.9266 86.7561 26.9521 86.7561 33.15C86.7561 39.3479 81.7306 44.3734 75.5327 44.3734Z" fill="white"/>
<path d="M89.5638 0.0498047C87.9863 6.333 82.3 10.9801 75.5319 10.9801C68.7637 10.9801 63.0721 6.333 61.5 0.0498047H67.2822C68.6518 3.24736 71.8281 5.49097 75.5319 5.49097C79.2357 5.49097 82.4119 3.24736 83.7815 0.0498047H89.5638Z" fill="white"/>
<path d="M53.6465 0.0498047L35.2233 45.8921C33.9283 49.1216 30.7947 51.2373 27.3147 51.2373C23.8347 51.2373 20.7065 49.1216 19.4061 45.8921L0.988281 0.0498047H10.0586L26.5846 41.1597C26.8511 41.8258 27.7943 41.8258 28.0608 41.1597L44.5761 0.0498047H53.6518H53.6465Z" fill="white"/>
</svg>
