<svg width="1512" height="852" viewBox="0 0 1512 852" fill="none" xmlns="http://www.w3.org/2000/svg">
<g clip-path="url(#clip0_29_687)">
<g style="mix-blend-mode:hard-light" filter="url(#filter0_f_29_687)">
<path d="M586.421 909.433C588.848 1021.28 642.982 1194.9 769.36 1173.85C1073.74 1054.81 992.638 1143.17 1097.19 1301.94C1180.12 1427.89 1342.44 1353.45 1408.46 1042.86C1490.97 654.607 1808.13 682.079 1344.65 441.385C1216.75 374.963 1119.81 581.948 1035.3 523.752C979.387 500.932 580.145 620.173 586.421 909.433Z" fill="url(#paint0_linear_29_687)"/>
</g>
<g style="mix-blend-mode:hard-light" filter="url(#filter1_f_29_687)">
<path d="M210.654 -218.334C141.633 -130.295 71.3293 34.4771 192.595 75.8152C486.887 166.673 457.651 179.961 474.502 369.31C487.87 519.517 610.28 526.295 815.565 284.041C1072.17 -18.7766 826.332 -149.24 689.553 -31.9985C580.129 61.795 459.065 -97.3355 412.211 -188.625C373.784 -235.211 279.675 -306.373 210.654 -218.334Z" fill="url(#paint1_linear_29_687)"/>
</g>
</g>
<defs>
<filter id="filter0_f_29_687" x="468.223" y="309.961" width="1241.01" height="1168.41" filterUnits="userSpaceOnUse" color-interpolation-filters="sRGB">
<feFlood flood-opacity="0" result="BackgroundImageFix"/>
<feBlend mode="normal" in="SourceGraphic" in2="BackgroundImageFix" result="shape"/>
<feGaussianBlur stdDeviation="59.0625" result="effect1_foregroundBlur_29_687"/>
</filter>
<filter id="filter1_f_29_687" x="8.55274" y="-378.279" width="1037.18" height="971.737" filterUnits="userSpaceOnUse" color-interpolation-filters="sRGB">
<feFlood flood-opacity="0" result="BackgroundImageFix"/>
<feBlend mode="normal" in="SourceGraphic" in2="BackgroundImageFix" result="shape"/>
<feGaussianBlur stdDeviation="59.0625" result="effect1_foregroundBlur_29_687"/>
</filter>
<linearGradient id="paint0_linear_29_687" x1="583.285" y1="924.632" x2="1354.11" y2="1080.48" gradientUnits="userSpaceOnUse">
<stop stop-color="#BE2FF4"/>
<stop offset="1" stop-color="#6210FF" stop-opacity="0.8"/>
</linearGradient>
<linearGradient id="paint1_linear_29_687" x1="200.692" y1="-206.435" x2="805.683" y2="296.006" gradientUnits="userSpaceOnUse">
<stop stop-color="#6210FF"/>
<stop offset="1" stop-color="#BE2FF4"/>
</linearGradient>
<clipPath id="clip0_29_687">
<rect width="1512" height="851.287" fill="white"/>
</clipPath>
</defs>
</svg>
