<svg width="1171" height="334" viewBox="0 0 1171 334" fill="none" xmlns="http://www.w3.org/2000/svg">
<path d="M461.426 8.4375H486.936L507.465 62.9618L530.719 8.4375H537.976L561.08 63.2687L582.21 8.4375H606.517L565.911 113.324H558.824L534.216 54.9452L509.307 113.324H502.22L461.463 8.4375H461.426Z" fill="#D8D9FF"/>
<path d="M650.301 7.95801H659.062L708.278 112.692H681.865L674.778 96.2172H633.871L626.784 112.692H601.273L650.339 7.95801H650.301ZM665.698 75.1209L654.23 48.3286L642.913 75.1209H665.717H665.698Z" fill="#D8D9FF"/>
<path d="M727.904 112.692V8.4375H751.911V48.9424H793.419V8.4375H817.425V112.711H793.419V72.0524H751.911V112.711H727.904V112.692Z" fill="#D8D9FF"/>
<path d="M61.9461 142.072L0.886719 13.9404H33.1647L66.5519 85.4377L99.939 13.9404H131.296L70.2365 142.091H61.9273L61.9461 142.072Z" fill="#D8D9FF"/>
<path d="M153.969 87.509V13.9404H183.295V87.3172C183.295 103.868 193.071 115.356 209.125 115.356C225.18 115.356 234.579 103.868 234.579 87.3172V13.9404H263.906V87.509C263.906 120.822 242.7 143.587 209.125 143.587C175.55 143.587 153.969 120.822 153.969 87.509Z" fill="#D8D9FF"/>
<path d="M340.812 13.3652H351.509L411.647 141.324H379.369L370.703 121.186H320.716L312.05 141.324H280.881L340.812 13.3652ZM359.63 95.4106L345.606 62.673L331.77 95.4106H359.63Z" fill="#D8D9FF"/>
<path d="M393.092 163.36H424.261L449.339 229.967L477.744 163.36H486.598L514.816 230.351L540.646 163.36H570.348L520.737 291.511H512.071L482.011 220.186L451.576 291.511H442.909L393.111 163.36H393.092Z" fill="#D8D9FF"/>
<path d="M585.291 226.956C585.291 188.561 613.508 160.541 651.689 160.541C689.87 160.541 717.9 188.58 717.9 226.956C717.9 265.332 689.494 293.563 651.689 293.563C613.884 293.563 585.291 265.524 585.291 226.956ZM651.689 265.351C671.804 265.351 687.84 249.932 687.84 226.956C687.84 203.98 671.786 188.753 651.689 188.753C631.593 188.753 615.351 204.191 615.351 226.956C615.351 249.721 631.405 265.351 651.689 265.351Z" fill="#D8D9FF"/>
<path d="M732.83 163.36H763.999L789.077 229.967L817.482 163.36H826.337L854.554 230.351L880.384 163.36H910.086L860.476 291.511H851.809L821.75 220.186L791.314 291.511H782.648L732.849 163.36H732.83Z" fill="#D8D9FF"/>
<path d="M1102.62 116.833C1102.62 128.531 1095.24 133.038 1083.41 133.038H1061.6C1061.23 141.343 1060.87 151.143 1060.87 154.902C1060.87 163.206 1060.87 172.623 1061.25 182.806C1061.98 203.922 1063.09 219.763 1064.57 241.243C1066.79 274.805 1068.28 299.68 1068.28 310.631C1068.28 320.431 1062 327.22 1051.64 327.22C1038.33 327.22 1027.24 316.653 1030.21 303.094C1031.69 295.173 1032.05 290.647 1032.05 284.989C1032.05 278.2 1032.05 271.046 1031.32 255.953C1031.32 253.306 1030.94 249.912 1030.94 245.769L1027.62 249.164C1007.29 270.663 988.438 283.091 965.522 283.091C949.637 283.091 931.139 274.786 922.284 266.885C916.363 261.227 913.411 256.317 913.411 248.032C913.411 213.722 963.304 151.872 998.421 151.872C1010.25 151.872 1020.23 156.781 1028.37 164.702V133.019H902.339C890.514 133.019 882.75 128.11 882.75 117.561C882.75 108.126 891.247 104.367 903.072 104.367C921.927 104.367 937.079 105.115 951.122 105.115C998.797 105.115 1005.83 105.498 1030.59 105.498C1033.54 100.972 1038.73 98.709 1045.38 98.709C1051.66 98.709 1056.1 100.972 1059.05 105.115H1064.59C1066.81 105.115 1076.42 104.367 1081.96 104.367C1092.3 104.367 1102.66 107.761 1102.66 116.813L1102.62 116.833ZM1025 202.426C1020.19 191.111 1010.58 183.957 1001.71 183.957C986.558 183.957 948.848 231.098 948.848 251.446C948.848 255.224 950.69 257.104 955.502 257.104C970.654 257.104 992.837 238.635 1006.15 225.057C1016.13 214.873 1020.19 209.215 1025 202.426Z" fill="#D8D9FF"/>
<path d="M1006.47 45.9497C998.702 38.029 990.205 22.9548 990.205 15.3985C990.205 6.72982 999.811 0.324219 1008.31 0.324219C1019.76 0.324219 1027.9 6.36543 1030.12 17.6615C1033.44 36.1304 1060.42 41.788 1081.12 41.788C1093.68 41.788 1119.92 28.9576 1124.73 20.289C1128.43 13.8834 1132.87 9.35727 1139.15 9.35727C1150.24 9.35727 1163.55 16.1464 1163.55 27.8261C1163.55 31.9687 1162.07 35.7468 1159.11 38.3934C1138.42 57.9938 1107.74 70.4406 1080.03 70.4406C1054.16 70.4406 1022.75 61.772 1006.49 45.9306L1006.47 45.9497Z" fill="#D8D9FF"/>
<path d="M1170.62 118.731C1170.62 128.167 1162.48 133.058 1152.14 133.058H1136.61V311.782C1136.61 320.834 1133.66 327.24 1124.41 327.24C1112.96 327.24 1101.12 319.702 1101.12 308.004C1101.12 300.466 1102.61 289.535 1102.61 283.493C1102.61 277.088 1102.98 265.773 1103.34 255.972C1104.45 223.925 1105.18 203.193 1105.18 174.905V133.422C1094.47 133.422 1087.43 133.039 1086.33 133.039C1073.39 133.039 1065.25 130.028 1065.25 119.096C1065.25 109.66 1071.91 104.022 1081.51 104.022C1084.46 104.022 1092.6 104.405 1106.65 104.405C1112.57 104.405 1118.85 103.657 1125.5 103.657L1152.12 104.041C1163.21 104.041 1170.6 108.567 1170.6 118.751L1170.62 118.731Z" fill="#D8D9FF"/>
<path d="M157.088 292.546C142.838 292.546 131.991 289.094 124.584 282.171C117.158 275.266 113.455 265.006 113.455 251.408C113.455 246.767 113.925 242.299 114.865 238.003C115.805 233.707 117.196 229.602 119.076 225.671C122.817 217.808 128.006 211.632 134.679 207.164C141.353 202.695 148.985 200.451 157.633 200.451C161.599 200.451 165.397 200.988 169.025 202.062C172.653 203.136 176.094 204.747 179.365 206.895C183.688 209.753 187.486 213.512 190.757 218.153C194.028 222.794 196.603 227.953 198.464 233.63C200.326 239.307 201.265 245.214 201.265 251.427C201.265 265.485 197.562 275.861 190.136 282.535C182.711 289.209 171.713 292.546 157.106 292.546H157.088ZM156.919 270.721C163.103 270.721 167.672 269.052 170.585 265.715C173.499 262.378 174.966 257.315 174.966 250.526C174.966 245.29 174.138 240.515 172.522 236.219C170.886 231.923 168.687 228.471 165.942 225.843C163.197 223.216 160.133 221.912 156.731 221.912C153.328 221.912 150.452 223.197 147.707 225.748C144.962 228.317 142.763 231.731 141.127 236.027C139.492 240.323 138.683 245.137 138.683 250.507C138.683 257.43 140.169 262.513 143.158 265.792C146.147 269.072 150.715 270.702 156.919 270.702V270.721Z" fill="#D8D9FF"/>
<path d="M212.639 154.864H238.751V290.763H212.639V154.864Z" fill="#D8D9FF"/>
<path d="M287.478 333.664C279.526 333.664 272.665 333.031 266.893 331.785C261.103 330.538 255.52 328.294 250.162 325.072L260.332 305.587C265.126 308.099 269.619 309.845 273.83 310.861C278.041 311.878 282.421 312.376 286.971 312.376C293.626 312.376 298.739 310.535 302.311 306.834C305.864 303.132 307.65 298.069 307.65 291.644V290.743H290.298C277.797 290.743 268.19 287.137 261.46 279.926C254.749 272.715 251.384 262.436 251.384 249.087C251.384 238.961 253.809 230.408 258.659 223.427C263.509 216.446 270.145 211.172 278.549 207.604C286.952 204.018 296.483 202.234 307.123 202.234H333.762V291.28C333.762 304.877 329.739 315.33 321.674 322.656C313.609 329.982 302.217 333.645 287.497 333.645L287.478 333.664ZM307.631 269.301V223.714H302.029C294.547 223.714 288.719 225.862 284.508 230.158C280.297 234.454 278.191 240.534 278.191 248.397C278.191 255.55 279.62 260.825 282.478 264.219C285.335 267.614 289.697 269.321 295.543 269.321H307.631V269.301Z" fill="#D8D9FF"/>
</svg>
